<mxfile host="app.diagrams.net" agent="Mozilla/5.0 (Windows NT 10.0; Win64; x64) AppleWebKit/537.36 (KHTML, like Gecko) Chrome/134.0.0.0 Safari/537.36" version="26.2.13">
  <diagram name="Page-1" id="B2x0uZb7mv4JfYxzWGTq">
    <mxGraphModel dx="1239" dy="737" grid="1" gridSize="10" guides="1" tooltips="1" connect="1" arrows="1" fold="1" page="1" pageScale="1" pageWidth="850" pageHeight="1100" math="0" shadow="0">
      <root>
        <mxCell id="0" />
        <mxCell id="1" parent="0" />
        <mxCell id="49kiqgvudHxhPm8cgrD7-1" value="&lt;h1 style=&quot;margin-top: 0px;&quot;&gt;Version Control and Updating in CMS&lt;/h1&gt;" style="text;html=1;whiteSpace=wrap;overflow=hidden;rounded=0;" vertex="1" parent="1">
          <mxGeometry x="10" y="10" width="950" height="40" as="geometry" />
        </mxCell>
        <mxCell id="49kiqgvudHxhPm8cgrD7-2" value="Related Files:" style="whiteSpace=wrap;html=1;aspect=fixed;" vertex="1" parent="1">
          <mxGeometry x="10" y="50" width="50" height="50" as="geometry" />
        </mxCell>
        <mxCell id="49kiqgvudHxhPm8cgrD7-3" value="" style="swimlane;startSize=0;" vertex="1" parent="1">
          <mxGeometry x="60" y="50" width="340" height="50" as="geometry">
            <mxRectangle x="60" y="50" width="50" height="40" as="alternateBounds" />
          </mxGeometry>
        </mxCell>
        <mxCell id="49kiqgvudHxhPm8cgrD7-4" value="&lt;a href=&quot;https://github.com/macglencoe/EmporiumWebsite/blob/cms/components/imageUpload.js&quot;&gt;components/imageUpload.js&lt;/a&gt;" style="shape=note;whiteSpace=wrap;html=1;backgroundOutline=1;darkOpacity=0.05;size=13;" vertex="1" parent="49kiqgvudHxhPm8cgrD7-3">
          <mxGeometry x="10" y="10" width="160" height="30" as="geometry" />
        </mxCell>
        <mxCell id="49kiqgvudHxhPm8cgrD7-5" value="&lt;a href=&quot;https://github.com/macglencoe/EmporiumWebsite/blob/cms/components/crudForm.js&quot;&gt;components/crudForm.js&lt;/a&gt;" style="shape=note;whiteSpace=wrap;html=1;backgroundOutline=1;darkOpacity=0.05;size=13;" vertex="1" parent="49kiqgvudHxhPm8cgrD7-3">
          <mxGeometry x="180" y="10" width="150" height="30" as="geometry" />
        </mxCell>
        <mxCell id="49kiqgvudHxhPm8cgrD7-6" value="GitHub" style="swimlane;whiteSpace=wrap;html=1;" vertex="1" parent="1">
          <mxGeometry x="10" y="160" width="410" height="390" as="geometry" />
        </mxCell>
        <mxCell id="49kiqgvudHxhPm8cgrD7-7" value="Vercel (Server)" style="swimlane;whiteSpace=wrap;html=1;" vertex="1" parent="1">
          <mxGeometry x="590" y="170" width="200" height="200" as="geometry" />
        </mxCell>
        <mxCell id="49kiqgvudHxhPm8cgrD7-8" value="Client" style="swimlane;whiteSpace=wrap;html=1;" vertex="1" parent="1">
          <mxGeometry x="810" y="170" width="530" height="400" as="geometry" />
        </mxCell>
        <mxCell id="49kiqgvudHxhPm8cgrD7-10" value="Local&lt;div&gt;Storage&lt;/div&gt;" style="shape=internalStorage;whiteSpace=wrap;html=1;dx=15;dy=15;rounded=1;arcSize=8;strokeWidth=2;" vertex="1" parent="49kiqgvudHxhPm8cgrD7-8">
          <mxGeometry x="410" y="35" width="100" height="70" as="geometry" />
        </mxCell>
        <mxCell id="49kiqgvudHxhPm8cgrD7-26" style="edgeStyle=orthogonalEdgeStyle;rounded=0;orthogonalLoop=1;jettySize=auto;html=1;entryX=0;entryY=0.5;entryDx=0;entryDy=0;" edge="1" parent="49kiqgvudHxhPm8cgrD7-8" source="49kiqgvudHxhPm8cgrD7-24" target="49kiqgvudHxhPm8cgrD7-25">
          <mxGeometry relative="1" as="geometry" />
        </mxCell>
        <mxCell id="49kiqgvudHxhPm8cgrD7-24" value="User Input" style="html=1;strokeWidth=2;shape=manualInput;whiteSpace=wrap;rounded=1;size=26;arcSize=11;" vertex="1" parent="49kiqgvudHxhPm8cgrD7-8">
          <mxGeometry x="50" y="40" width="100" height="60" as="geometry" />
        </mxCell>
        <mxCell id="49kiqgvudHxhPm8cgrD7-27" style="edgeStyle=orthogonalEdgeStyle;rounded=0;orthogonalLoop=1;jettySize=auto;html=1;entryX=0;entryY=0.5;entryDx=0;entryDy=0;" edge="1" parent="49kiqgvudHxhPm8cgrD7-8" source="49kiqgvudHxhPm8cgrD7-25" target="49kiqgvudHxhPm8cgrD7-10">
          <mxGeometry relative="1" as="geometry" />
        </mxCell>
        <mxCell id="49kiqgvudHxhPm8cgrD7-25" value="CRUD System" style="rounded=1;whiteSpace=wrap;html=1;absoluteArcSize=1;arcSize=14;strokeWidth=2;" vertex="1" parent="49kiqgvudHxhPm8cgrD7-8">
          <mxGeometry x="215" y="55" width="100" height="30" as="geometry" />
        </mxCell>
      </root>
    </mxGraphModel>
  </diagram>
</mxfile>
